<svg width="25" height="25" viewBox="0 0 25 25" fill="none" xmlns="http://www.w3.org/2000/svg">
<g id="Bell">
<path id="Vector" d="M5.76953 10.2499C5.76829 9.36045 5.94311 8.47951 6.28392 7.6579C6.62473 6.83628 7.12478 6.09025 7.75526 5.4628C8.38574 4.83535 9.13417 4.33889 9.95741 4.00204C10.7807 3.66519 11.6624 3.49461 12.5519 3.50013C16.2634 3.52772 19.2322 6.61275 19.2322 10.3347V10.9999C19.2322 14.3577 19.9347 16.3061 20.5534 17.371C20.6201 17.4848 20.6555 17.6142 20.6562 17.746C20.657 17.8779 20.6229 18.0076 20.5574 18.1221C20.492 18.2366 20.3975 18.3318 20.2836 18.3982C20.1696 18.4645 20.0401 18.4996 19.9083 18.4999H5.09271C4.96082 18.4996 4.83136 18.4645 4.71738 18.3981C4.60339 18.3318 4.50892 18.2366 4.4435 18.122C4.37808 18.0075 4.34401 17.8778 4.34474 17.7459C4.34547 17.614 4.38096 17.4846 4.44765 17.3709C5.06671 16.3059 5.76952 14.3575 5.76952 10.9999L5.76953 10.2499Z" stroke="#1D2026" stroke-width="1.5" stroke-linecap="round" stroke-linejoin="round"/>
<path id="Vector_2" d="M9.5 18.5V19.25C9.5 20.0456 9.81607 20.8087 10.3787 21.3713C10.9413 21.9339 11.7044 22.25 12.5 22.25C13.2956 22.25 14.0587 21.9339 14.6213 21.3713C15.1839 20.8087 15.5 20.0456 15.5 19.25V18.5" stroke="#1D2026" stroke-width="1.5" stroke-linecap="round" stroke-linejoin="round"/>
</g>
</svg>
