<svg width="16" height="17" viewBox="0 0 16 17" fill="none" xmlns="http://www.w3.org/2000/svg">
<g id="Play">
<path id="Vector" d="M13.5928 8.16939L4.59423 2.6701C4.51843 2.62378 4.43167 2.59849 4.34286 2.59683C4.25405 2.59517 4.1664 2.61719 4.08892 2.66064C4.01145 2.70409 3.94695 2.7674 3.90205 2.84404C3.85716 2.92069 3.8335 3.00791 3.8335 3.09674V14.0953C3.8335 14.1841 3.85716 14.2714 3.90205 14.348C3.94695 14.4247 4.01145 14.488 4.08892 14.5314C4.1664 14.5749 4.25405 14.5969 4.34286 14.5952C4.43167 14.5936 4.51843 14.5683 4.59423 14.522L13.5928 9.02267C13.6659 8.978 13.7262 8.91531 13.7681 8.84061C13.81 8.7659 13.832 8.68168 13.832 8.59603C13.832 8.51038 13.81 8.42616 13.7681 8.35145C13.7262 8.27675 13.6659 8.21406 13.5928 8.16939Z" fill="#1D2026"/>
</g>
</svg>
